<svg width="32" height="32" viewBox="0 0 32 32" fill="none" xmlns="http://www.w3.org/2000/svg">
<rect width="32" height="32" fill="#EFEFEF"/>
<path d="M3 8.5C3 7.39543 3.89543 6.5 5 6.5H17C18.1046 6.5 19 7.39543 19 8.5V20.5H3V8.5Z" fill="#1B72C0"/>
<rect x="3" y="20.5" width="26" height="2" fill="#270008"/>
<rect x="19" y="16.5" width="9" height="4" fill="#001E2F"/>
<path d="M19 10.5H24.4586C25.9251 10.5 27.1767 11.5602 27.4178 13.0068L28 16.5H19V10.5Z" fill="#001E2F"/>
<path d="M22 11.5H24.3057C25.2834 11.5 26.1178 12.2068 26.2785 13.1712L26.5 14.5H22V11.5Z" fill="#74777F"/>
<path d="M27 22C27 21.0717 26.6313 20.1815 25.9749 19.5251C25.3185 18.8687 24.4283 18.5 23.5 18.5C22.5717 18.5 21.6815 18.8687 21.0251 19.5251C20.3687 20.1815 20 21.0717 20 22L23.5 22H27Z" fill="#270008"/>
<path d="M12 22C12 21.0717 11.6313 20.1815 10.9749 19.5251C10.3185 18.8687 9.42826 18.5 8.5 18.5C7.57174 18.5 6.6815 18.8687 6.02513 19.5251C5.36875 20.1815 5 21.0717 5 22L8.5 22H12Z" fill="#270008"/>
<circle cx="8.5" cy="22" r="2.5" fill="#1B72C0"/>
<circle cx="8.5" cy="22" r="1.5" fill="#44474E"/>
<circle cx="23.5" cy="22" r="2.5" fill="#1B72C0"/>
<circle cx="23.5" cy="22" r="1.5" fill="#44474E"/>
<path d="M26.5 14.5L22 11.5V14.5H26.5Z" fill="#44474E"/>
<rect x="8" y="6.5" width="5" height="5" fill="#F3F4F9"/>
<path d="M8.5 12L9 11.5H8L8.5 12Z" fill="#F3F4F9"/>
<path d="M9.5 12L10 11.5H9L9.5 12Z" fill="#F3F4F9"/>
<path d="M10.5 12L11 11.5H10L10.5 12Z" fill="#F3F4F9"/>
<path d="M11.5 12L12 11.5H11L11.5 12Z" fill="#F3F4F9"/>
<path d="M12.5 12L13 11.5H12L12.5 12Z" fill="#F3F4F9"/>
</svg>
