<svg width="25" height="19" viewBox="0 0 25 19" fill="none" xmlns="http://www.w3.org/2000/svg">
<path d="M20.9127 0.762375L19.3127 2.01237L12.5002 7.07487L5.68768 1.96238L4.08768 0.712375C3.71075 0.400557 3.25062 0.206175 2.76429 0.153313C2.27797 0.10045 1.78682 0.19143 1.35169 0.41498C0.91657 0.63853 0.556592 0.984827 0.316359 1.41097C0.0761258 1.83711 -0.0338057 2.32437 0.000183612 2.81238V17.2999C0.000183612 17.7507 0.17929 18.1831 0.498102 18.502C0.816914 18.8208 1.24932 18.9999 1.70018 18.9999H5.68768V9.34987L12.5002 14.4624L19.3127 9.34987V18.9999H23.3002C23.7511 18.9999 24.1835 18.8208 24.5023 18.502C24.8211 18.1831 25.0002 17.7507 25.0002 17.2999V2.81238C25.0237 2.32858 24.9061 1.84838 24.6617 1.43015C24.4174 1.01193 24.0569 0.673683 23.6239 0.456538C23.1909 0.239394 22.7042 0.1527 22.2229 0.206994C21.7416 0.261289 21.2864 0.454233 20.9127 0.762375Z" fill="#1B72C0"/>
</svg>
