<svg width="25" height="26" viewBox="0 0 25 26" fill="none" xmlns="http://www.w3.org/2000/svg">
<path d="M13.7847 0.501538C14.6969 0.498038 15.6091 0.507205 16.521 0.529038L16.7635 0.537788C17.0435 0.547788 17.3197 0.560288 17.6535 0.575288C18.9835 0.637788 19.891 0.847788 20.6872 1.15654C21.5122 1.47404 22.2072 1.90404 22.9022 2.59904C23.5377 3.22355 24.0295 3.97897 24.3435 4.81279C24.6522 5.60904 24.8622 6.51779 24.9247 7.84779C24.9397 8.18029 24.9522 8.45779 24.9622 8.73779L24.9697 8.98029C24.992 9.89178 25.0015 10.8035 24.9985 11.7153L24.9997 12.6478V14.2853C25.0028 15.1975 24.9932 16.1096 24.971 17.0215L24.9635 17.264C24.9535 17.544 24.941 17.8203 24.926 18.154C24.8635 19.484 24.651 20.3915 24.3435 21.1878C24.0306 22.0225 23.5386 22.7785 22.9022 23.4028C22.2772 24.0382 21.5214 24.53 20.6872 24.844C19.891 25.1528 18.9835 25.3628 17.6535 25.4253C17.3197 25.4403 17.0435 25.4528 16.7635 25.4628L16.521 25.4703C15.6091 25.4925 14.6969 25.5021 13.7847 25.499L12.8522 25.5003H11.216C10.3038 25.5034 9.39165 25.4938 8.47974 25.4715L8.23724 25.464C7.94051 25.4533 7.64384 25.4408 7.34724 25.4265C6.01724 25.364 5.10974 25.1515 4.31224 24.844C3.4781 24.5307 2.72254 24.0388 2.09849 23.4028C1.4623 22.7781 0.970025 22.0222 0.655995 21.1878C0.347245 20.3915 0.137245 19.484 0.0747446 18.154C0.0608233 17.8574 0.0483232 17.5608 0.0372447 17.264L0.0309948 17.0215C0.00794929 16.1096 -0.0024685 15.1975 -0.000255312 14.2853V11.7153C-0.00374402 10.8035 0.00542362 9.89178 0.0272448 8.98029L0.0359947 8.73779C0.0459947 8.45779 0.0584947 8.18029 0.0734947 7.84779C0.135995 6.51654 0.345995 5.61029 0.654745 4.81279C0.96896 3.97856 1.4622 3.22334 2.09974 2.60029C2.72336 1.96373 3.47845 1.471 4.31224 1.15654C5.10974 0.847788 6.01599 0.637788 7.34724 0.575288L8.23724 0.537788L8.47974 0.531538C9.39122 0.508504 10.303 0.498086 11.2147 0.500288L13.7847 0.501538ZM12.4997 6.75154C11.6716 6.73983 10.8494 6.89282 10.081 7.20162C9.31249 7.51043 8.61305 7.96889 8.0233 8.55036C7.43355 9.13183 6.96525 9.82471 6.6456 10.5887C6.32596 11.3528 6.16136 12.1727 6.16136 13.0009C6.16136 13.8291 6.32596 14.6491 6.6456 15.4131C6.96525 16.1771 7.43355 16.87 8.0233 17.4515C8.61305 18.0329 9.31249 18.4914 10.081 18.8002C10.8494 19.109 11.6716 19.262 12.4997 19.2503C14.1573 19.2503 15.7471 18.5918 16.9192 17.4197C18.0913 16.2476 18.7497 14.6579 18.7497 13.0003C18.7497 11.3427 18.0913 9.75297 16.9192 8.58087C15.7471 7.40877 14.1573 6.75154 12.4997 6.75154ZM12.4997 9.25154C12.9979 9.24236 13.4928 9.33253 13.9557 9.5168C14.4186 9.70106 14.8402 9.97571 15.1957 10.3247C15.5513 10.6737 15.8337 11.0901 16.0265 11.5495C16.2194 12.0089 16.3187 12.5021 16.3188 13.0003C16.3189 13.4985 16.2197 13.9917 16.027 14.4512C15.8344 14.9106 15.552 15.3271 15.1966 15.6762C14.8412 16.0253 14.4197 16.3001 13.9569 16.4845C13.4941 16.669 12.9991 16.7593 12.501 16.7503C11.5064 16.7503 10.5526 16.3552 9.84934 15.6519C9.14608 14.9487 8.751 13.9949 8.751 13.0003C8.751 12.0057 9.14608 11.0519 9.84934 10.3486C10.5526 9.64538 11.5064 9.25029 12.501 9.25029L12.4997 9.25154ZM19.0622 4.87654C18.659 4.89268 18.2776 5.06423 17.998 5.35525C17.7184 5.64628 17.5622 6.03421 17.5622 6.43779C17.5622 6.84137 17.7184 7.2293 17.998 7.52032C18.2776 7.81135 18.659 7.9829 19.0622 7.99904C19.4766 7.99904 19.8741 7.83442 20.1671 7.54139C20.4601 7.24837 20.6247 6.85094 20.6247 6.43654C20.6247 6.02214 20.4601 5.62471 20.1671 5.33168C19.8741 5.03866 19.4766 4.87404 19.0622 4.87404V4.87654Z" fill="#1B72C0"/>
</svg>
