<svg width="46" height="66" viewBox="0 0 46 66" fill="none" xmlns="http://www.w3.org/2000/svg">
<path d="M32.4633 64.4633C33.6308 65.6308 35.5334 65.6378 36.608 64.3844C41.3209 58.8875 44.424 52.1698 45.5394 44.9759C46.8081 36.7945 45.4401 28.4216 41.6336 21.0693C37.8271 13.7169 31.7796 7.76677 24.3666 4.08005C17.8483 0.838345 10.5716 -0.505429 3.36255 0.169968C1.71874 0.323973 0.626171 1.88168 0.90559 3.50887C1.18501 5.13606 2.73102 6.21433 4.37681 6.08316C10.3308 5.60862 16.3228 6.75709 21.7042 9.4334C27.9808 12.5549 33.1012 17.5929 36.3242 23.8181C39.5471 30.0433 40.7053 37.1326 39.6312 44.0598C38.7103 49.999 36.1893 55.5548 32.3649 60.1428C31.3078 61.411 31.2959 63.2959 32.4633 64.4633Z" fill="#760019"/>
</svg>
