<svg width="68" height="78" viewBox="0 0 68 78" fill="none" xmlns="http://www.w3.org/2000/svg">
<path d="M1.27916 61.9851C0.00821304 63.039 -0.175688 64.9327 0.972362 66.1192C5.03508 70.3181 9.99903 73.56 15.5045 75.5906C21.9471 77.9668 28.9029 78.5998 35.6686 77.4256C42.4343 76.2515 48.77 73.3118 54.0353 68.9038C59.3005 64.4957 63.3085 58.7757 65.6542 52.3219C67.9998 45.8681 68.5998 38.9094 67.3936 32.1493C66.1874 25.3893 63.2177 19.0675 58.7848 13.8233C54.3518 8.57899 48.6128 4.59811 42.148 2.28311C36.6235 0.304832 30.7363 -0.397 24.9257 0.21339C23.2837 0.385875 22.2088 1.95577 22.5065 3.57972C22.8042 5.20366 24.3622 6.26447 26.0064 6.11479C30.7778 5.68044 35.5993 6.28867 40.1324 7.91193C45.6061 9.87204 50.4653 13.2426 54.2187 17.6829C57.972 22.1233 60.4864 27.4759 61.5077 33.1996C62.529 38.9233 62.021 44.8152 60.035 50.2796C58.0489 55.744 54.6553 60.5872 50.1973 64.3194C45.7392 68.0517 40.3748 70.5407 34.6463 71.5349C28.9178 72.529 23.0284 71.993 17.5734 69.9811C13.0559 68.315 8.96908 65.6855 5.59005 62.2889C4.42564 61.1184 2.5501 60.9313 1.27916 61.9851Z" fill="#760019"/>
</svg>
